<?xml version="1.0" standalone="no"?>
<!DOCTYPE svg PUBLIC "-//W3C//DTD SVG 20010904//EN"
 "http://www.w3.org/TR/2001/REC-SVG-20010904/DTD/svg10.dtd">
<svg version="1.0" xmlns="http://www.w3.org/2000/svg"
 width="100.000000pt" height="150.000000pt" viewBox="0 0 100.000000 150.000000"
 preserveAspectRatio="xMidYMid meet">
<metadata>
Created by potrace 1.16, written by Peter Selinger 2001-2019
</metadata>
<g transform="translate(0.000000,150.000000) scale(0.100000,-0.100000)"
fill="#000000" stroke="none">
<path d="M0 1175 l0 -324 384 -3 c211 -2 388 -7 393 -11 4 -5 9 -143 11 -308
l3 -299 -291 0 -290 0 0 90 0 90 143 1 c78 0 162 4 187 7 l45 7 3 106 c3 104
2 107 -20 113 -13 3 -146 6 -295 6 l-273 0 0 -325 0 -325 500 0 500 0 0 533 0
534 -232 6 c-128 4 -304 7 -390 7 -184 0 -178 -4 -178 113 l0 74 197 6 c108 4
288 7 400 7 l203 0 0 110 0 110 -500 0 -500 0 0 -325z"/>
</g>
</svg>
