<?xml version="1.0" encoding="UTF-8" standalone="no"?>
<svg
   xmlns:dc="http://purl.org/dc/elements/1.1/"
   xmlns:cc="http://creativecommons.org/ns#"
   xmlns:rdf="http://www.w3.org/1999/02/22-rdf-syntax-ns#"
   xmlns:svg="http://www.w3.org/2000/svg"
   xmlns="http://www.w3.org/2000/svg"
   id="svg8"
   preserveAspectRatio="xMidYMid meet"
   viewBox="0 0 1280.000000 1920.000000"
   height="1920.000000pt"
   width="1280.000000pt"
   version="1.0">
  <defs
     id="defs12" />
  <metadata
     id="metadata2">
Created by potrace 1.16, written by Peter Selinger 2001-2019
<rdf:RDF>
  <cc:Work
     rdf:about="">
    <dc:format>image/svg+xml</dc:format>
    <dc:type
       rdf:resource="http://purl.org/dc/dcmitype/StillImage" />
  </cc:Work>
</rdf:RDF>
</metadata>
  <g
     id="g6"
     stroke="none"
     fill="#000000"
     transform="translate(0.000000,1920.000000) scale(0.100000,-0.100000)">
    <path
       id="path4"
       d="M2 17873 l3 -1328 515 -17 c1601 -52 2426 -79 2755 -88 1118 -31 2775 -86 4080 -135 363 -13 1099 -38 1635 -55 536 -17 1008 -33 1048 -36 l72 -6 0 -1106 0 -1107 -303 -48 c-366 -57 -374 -58 -1067 -87 -1500 -62 -3376 -108 -6585 -160 -1029 -17 -1934 -33 -2012 -36 l-143 -6 0 -6829 0 -6829 6400 0 6400 0 0 4160 0 4160 -3780 0 -3780 0 0 -1459 0 -1459 73 -6 c39 -3 617 -17 1282 -31 1545 -33 1954 -43 2195 -55 721 -37 1055 -113 1234 -281 160 -149 205 -351 192 -859 -6 -271 -43 -1141 -48 -1145 -15 -10 -525 -116 -598 -124 -922 -101 -5204 -122 -6155 -31 -78 8 -674 99 -682 104 -3 2 -92 1165 -102 1346 -40 668 -52 1259 -58 2685 -6 1555 7 2339 47 2900 9 120 80 700 96 776 l5 26 287 7 c158 4 1115 22 2127 41 1735 33 2097 41 3000 65 1450 40 2924 91 3460 120 105 6 413 31 686 55 272 25 501 45 507 45 9 0 12 963 12 4080 l0 4080 -6400 0 -6400 0 2 -1327z" />
  </g>
</svg>
